{"title":"RadioRama - The Best","uid":4265478,"size":524263805,"categoryP":"audio","categoryS":"flac","magnet":"?xt=urn:btih:1c0ba1d90ecb1b0cb7d3423111537540a5021c0b&amp;dn=RadioRama+-+The+Best&amp;tr=udp%3A%2F%2Ftracker.openbittorrent.com%3A80&amp;tr=udp%3A%2F%2Fopen.demonii.com%3A1337&amp;tr=udp%3A%2F%2Ftracker.coppersurfer.tk%3A6969&amp;tr=udp%3A%2F%2Fexodus.desync.com%3A6969","seeders":1,"leechers":0,"uploader":"Alex6602","files":6,"time":1214674715,"description":"PERFORMER &quot;Radiorama&quot;\nTITLE &quot;Disco collection&quot;\nFILE &quot;CDImage.ape&quot; WAVE \n  TRACK 01 AUDIO\n    TITLE &quot;Desire&quot;\n    PERFORMER &quot;Radiorama&quot;\n    INDEX 01 00:00:00\n  TRACK 02 AUDIO\n    TITLE &quot;Yeti&quot;\n    PERFORMER &quot;Radiorama&quot;\n    INDEX 00 03:48:13\n    INDEX 01 03:50:13\n  TRACK 03 AUDIO\n    TITLE &quot;Vampires&quot;\n    PERFORMER &quot;Radiorama&quot;\n    INDEX 00 09:37:21\n    INDEX 01 09:39:21\n  TRACK 04 AUDIO\n    TITLE &quot;Chanse to desire&quot;\n    PERFORMER &quot;Radiorama&quot;\n    INDEX 00 15:47:52\n    INDEX 01 15:49:52\n  TRACK 05 AUDIO\n    TITLE &quot;Aliens&quot;\n    PERFORMER &quot;Radiorama&quot;\n    INDEX 00 19:51:69\n    INDEX 01 19:53:69\n  TRACK 06 AUDIO\n    TITLE &quot;So I know&quot;\n    PERFORMER &quot;Radiorama&quot;\n    INDEX 00 25:44:13\n    INDEX 01 25:46:13\n  TRACK 07 AUDIO\n    TITLE &quot;Warrior&quot;\n    PERFORMER &quot;Radiorama&quot;\n    INDEX 00 30:30:27\n    INDEX 01 30:32:27\n  TRACK 08 AUDIO\n    TITLE &quot;Fire&quot;\n    PERFORMER &quot;Radiorama&quot;\n    INDEX 00 34:46:65\n    INDEX 01 34:48:65\n  TRACK 09 AUDIO\n    TITLE &quot;Flight of fantasy&quot;\n    PERFORMER &quot;Radiorama&quot;\n    INDEX 00 38:40:23\n    INDEX 01 38:42:23\n  TRACK 10 AUDIO\n    TITLE &quot;Manitu&quot;\n    PERFORMER &quot;Radiorama&quot;\n    INDEX 00 42:37:35\n    INDEX 01 42:39:35\n  TRACK 11 AUDIO\n    TITLE &quot;Love of my life&quot;\n    PERFORMER &quot;Radiorama&quot;\n    INDEX 00 46:24:57\n    INDEX 01 46:26:57\n  TRACK 12 AUDIO\n    TITLE &quot;Hey hey&quot;\n    PERFORMER &quot;Radiorama&quot;\n    INDEX 00 51:11:23\n    INDEX 01 51:13:23\n  TRACK 13 AUDIO\n    TITLE &quot;Heartbreaker&quot;\n    PERFORMER &quot;Radiorama&quot;\n    INDEX 00 55:45:21\n    INDEX 01 55:47:21\n  TRACK 14 AUDIO\n    TITLE &quot;ABCD&quot;\n    PERFORMER &quot;Radiorama&quot;\n    INDEX 00 60:06:08\n    INDEX 01 60:08:08\n  TRACK 15 AUDIO\n    TITLE &quot;Bye bye baby&quot;\n    PERFORMER &quot;Radiorama&quot;\n    INDEX 00 64:08:46\n    INDEX 01 64:10:46\n  TRACK 16 AUDIO\n    TITLE &quot;Woman&quot;\n    PERFORMER &quot;Radiorama&quot;\n    INDEX 00 68:32:55\n    INDEX 01 68:34:55\n","torrent":{"xt":"urn:btih:1c0ba1d90ecb1b0cb7d3423111537540a5021c0b","amp;dn":"RadioRama+-+The+Best","amp;tr":["udp%3A%2F%2Ftracker.openbittorrent.com%3A80","udp%3A%2F%2Fopen.demonii.com%3A1337","udp%3A%2F%2Ftracker.coppersurfer.tk%3A6969","udp%3A%2F%2Fexodus.desync.com%3A6969"],"infoHash":"1c0ba1d90ecb1b0cb7d3423111537540a5021c0b","infoHashBuffer":{"type":"Buffer","data":[28,11,161,217,14,203,27,12,183,211,66,49,17,83,117,64,165,2,28,11]},"announce":[],"urlList":[]}}